<svg width="75" height="36" viewBox="0 0 75 36" fill="none" xmlns="http://www.w3.org/2000/svg">
<path d="M9.12638 4.10142C7.79269 4.10142 6.56471 4.33452 5.44127 4.80274C4.3415 5.24743 3.38216 5.87964 2.56325 6.69863C1.76761 7.49432 1.13527 8.45347 0.667433 9.57678C0.222868 10.7 0 11.929 0 13.2629C0 14.5969 0.224847 15.8257 0.667433 16.949C1.13527 18.0723 1.76761 19.0429 2.56325 19.8621C3.38216 20.6576 4.3415 21.2898 5.44127 21.7578C6.56471 22.2025 7.79269 22.4243 9.12638 22.4243C10.4605 22.4243 11.6778 22.2026 12.7776 21.7578C13.901 21.2898 14.86 20.6576 15.656 19.8621C16.4749 19.0429 17.1072 18.0723 17.5518 16.949C18.0196 15.8257 18.2531 14.5969 18.2531 13.2629C18.2531 11.929 18.0204 10.7 17.5518 9.57678C17.1072 8.45347 16.4749 7.49432 15.656 6.69863C14.86 5.87964 13.901 5.24743 12.7776 4.80274C11.6778 4.33472 10.4605 4.10142 9.12638 4.10142ZM29.1968 4.10142C27.8627 4.10142 26.6348 4.33576 25.5117 4.80378C24.412 5.24848 23.4526 5.87964 22.6333 6.69863C21.8377 7.49432 21.2057 8.45452 20.7375 9.57782C20.2929 10.701 20.0712 11.9292 20.0712 13.2629C20.0712 14.5967 20.2921 15.8248 20.7375 16.948C21.2057 18.0713 21.8377 19.0316 22.6333 19.8271C23.4526 20.6463 24.412 21.2773 25.5117 21.722C26.6348 22.19 27.8627 22.4243 29.1968 22.4243C29.8513 22.4243 30.4714 22.3739 31.0575 22.2749C31.0592 22.2749 31.0603 22.2749 31.0603 22.2749C31.5805 22.2093 32.0589 21.9561 32.4058 21.5629C32.7527 21.1696 32.9441 20.6634 32.9442 20.1391C32.9441 19.5681 32.7173 19.0206 32.3136 18.6168C31.91 18.2131 31.3625 17.9862 30.7916 17.986C30.5904 17.9863 30.3901 18.0149 30.1968 18.0708C30.196 18.0709 30.1968 18.0707 30.1968 18.0708C29.8694 18.1416 29.5095 18.1784 29.1249 18.1784C28.5166 18.1784 27.9439 18.0617 27.4054 17.8278C26.8674 17.5934 26.3873 17.2655 25.966 16.8445C25.568 16.4232 25.2524 15.9087 25.0185 15.3003C24.7858 14.6918 24.6674 14.0128 24.6674 13.264C24.6674 12.5152 24.7858 11.8361 25.0185 11.2276C25.2512 10.6192 25.568 10.1047 25.966 9.68346C26.3873 9.2624 26.8674 8.93527 27.4054 8.7011C27.9439 8.46713 28.5166 8.34966 29.1249 8.34966C29.5075 8.34966 29.8657 8.38566 30.1951 8.45738C30.1944 8.45738 30.1956 8.45746 30.1951 8.45738C30.3884 8.51326 30.5904 8.54173 30.7916 8.54201C31.3627 8.54181 31.9103 8.31481 32.314 7.91088C32.7177 7.50696 32.9444 6.95922 32.9442 6.38816C32.9441 5.8638 32.7526 5.35745 32.4058 4.96421C32.0589 4.57097 31.5805 4.31778 31.0603 4.25218C31.0593 4.25201 31.0575 4.25218 31.0575 4.25218C30.4714 4.15304 29.8513 4.10142 29.1968 4.10142ZM37.0511 4.10142C35.9659 4.10142 35.0507 4.90884 34.915 5.98536C34.8164 6.57161 34.7644 7.19062 34.7644 7.84538C34.7644 9.17921 34.9961 15.8456 35.466 16.9689C35.9105 18.0687 36.5428 19.028 37.3618 19.8471C38.1574 20.6428 39.1167 21.2749 40.2398 21.7429C41.3632 22.1874 42.5912 22.4094 43.9249 22.4094C45.2586 22.4094 46.4877 22.1873 47.6112 21.7429C48.7342 21.2749 49.6936 20.6428 50.4892 19.8471C50.6549 19.6813 50.8127 19.5102 50.9634 19.3329C51.1133 19.51 51.271 19.6813 51.4367 19.8471C52.2324 20.6428 53.1925 21.2749 54.3159 21.7429C55.439 22.1874 56.6673 22.4094 58.001 22.4094C59.3347 22.4094 60.5627 22.1873 61.6861 21.7429C62.8092 21.2749 63.7697 20.6428 64.5653 19.8471C65.3843 19.028 66.0154 18.0687 66.46 16.9689C66.9282 15.8456 67.1625 9.17921 67.1625 7.84538C67.1625 7.19062 67.1112 6.57161 67.0126 5.98536C67.0121 5.98536 67.0129 5.98536 67.0126 5.98536C66.8785 4.90884 65.9608 4.10171 64.8756 4.10142C63.6863 4.10142 62.7226 5.06495 62.7226 6.25424C62.7231 6.45551 62.762 6.65592 62.8054 6.84908C62.8764 7.17849 62.9119 7.53452 62.9119 7.91899C62.9119 8.52748 62.7936 14.9153 62.5609 15.4536C62.3281 15.9918 61.9988 16.472 61.5779 16.8932C61.1566 17.2911 60.6418 17.6067 60.0335 17.8407C59.4253 18.0749 58.746 18.1924 57.9973 18.1924C57.2482 18.1924 56.5693 18.0749 55.961 17.8407C55.3524 17.6067 54.838 17.2911 54.4167 16.8932C53.9954 16.472 53.6676 15.9918 53.4333 15.4536C53.2006 14.9174 53.0822 8.58126 53.0822 7.93303V7.91598C53.0822 7.8923 53.083 7.86891 53.0832 7.84507C53.0859 7.48765 53.1227 7.15457 53.1897 6.84575C53.245 6.65256 53.2725 6.45219 53.2725 6.25112C53.2725 5.06179 52.3089 4.0982 51.1196 4.0982C51.0643 4.0982 51.0091 4.09814 50.9578 4.10495C50.9026 4.10495 50.8513 4.0982 50.7961 4.0982C49.6068 4.0982 48.6423 5.06179 48.6423 6.25112C48.6428 6.45227 48.6818 6.65261 48.7291 6.84575C48.8001 7.17518 48.8356 7.53121 48.8356 7.91577C48.8356 8.52417 48.7173 14.9121 48.4845 15.4504C48.2518 15.9886 47.9224 16.4688 47.5011 16.8899C47.0799 17.2878 46.5655 17.6034 45.9572 17.8373C45.3485 18.0717 44.6705 18.1888 43.9217 18.1888C43.1731 18.1888 42.4938 18.0712 41.8855 17.8373C41.2769 17.6034 40.7625 17.2878 40.3412 16.8899C39.9203 16.4688 39.5921 15.9886 39.3582 15.4504C39.1254 14.9121 39.0071 8.52417 39.0071 7.91577C39.0071 7.53109 39.0465 7.175 39.1136 6.84575C39.1689 6.65256 39.1964 6.45219 39.1964 6.25112C39.1964 5.06179 38.2328 4.0982 37.0434 4.0982L37.0511 4.10142ZM30.3136 4.28878C30.2618 4.30068 30.2105 4.31447 30.1597 4.33017C30.1091 4.34575 30.0591 4.3632 30.0098 4.38247C30.0611 4.36236 30.1084 4.34652 30.1597 4.33017C30.211 4.31313 30.2623 4.29883 30.3136 4.28878ZM28.8481 5.46537C28.8269 5.50932 28.8071 5.5539 28.7889 5.59919C28.7889 5.55405 28.8284 5.50932 28.8481 5.46537ZM28.7889 5.60387C28.7701 5.65235 28.7529 5.70148 28.7376 5.7512C28.7226 5.80119 28.7095 5.85165 28.6982 5.90259C28.6982 5.852 28.7376 5.80095 28.7376 5.7512C28.7376 5.70163 28.7771 5.65208 28.7889 5.60387ZM9.12793 8.34852C9.71292 8.34852 10.2754 8.46519 10.8135 8.69923C11.3752 8.90983 11.8671 9.22644 12.288 9.64759C12.7093 10.0689 13.0363 10.5833 13.2706 11.1917C13.527 11.8003 13.6572 12.4907 13.6572 13.2629C13.6572 14.0352 13.527 14.7257 13.2706 15.3342C13.0379 15.9426 12.7093 16.4571 12.288 16.8784C11.8671 17.2996 11.3752 17.6276 10.8135 17.8617C10.2754 18.0723 9.71292 18.1777 9.12793 18.1777C8.51966 18.1777 7.9469 18.0723 7.40845 17.8617C6.87041 17.6277 6.39034 17.2996 5.96904 16.8784C5.54775 16.4571 5.20812 15.9426 4.95092 15.3342C4.71819 14.7257 4.59985 14.0352 4.59985 13.2629C4.59985 12.4907 4.71818 11.8003 4.95092 11.1917C5.20733 10.5833 5.54775 10.0689 5.96904 9.64759C6.39034 9.22644 6.87041 8.90983 7.40845 8.69923C7.9469 8.46523 8.51966 8.34852 9.12793 8.34852ZM28.6974 20.6232C28.7087 20.6741 28.7219 20.7247 28.7368 20.7747C28.7522 20.8244 28.7693 20.8735 28.7882 20.922C28.7487 20.8731 28.7487 20.8246 28.7368 20.7747C28.7368 20.7251 28.6974 20.6746 28.6974 20.6232ZM30.0082 22.1425C30.0575 22.1617 30.1075 22.1792 30.1581 22.1948C30.2102 22.2108 30.2628 22.2249 30.3159 22.237C30.2646 22.225 30.2094 22.2096 30.1581 22.1948C30.1068 22.1777 30.0556 22.1634 30.0082 22.1425ZM2.28788 22.4245C1.76336 22.4247 1.25692 22.6162 0.863629 22.9632C0.470338 23.3103 0.21724 23.789 0.151844 24.3094C0.151353 24.3094 0.152334 24.3094 0.151844 24.3094C0.0532428 24.8957 0.00194955 25.5157 0.00194955 26.1704C0.00194955 27.5043 0.23395 28.7323 0.703363 29.8555C1.14793 30.9554 1.78026 31.9156 2.59917 32.7347C3.39481 33.5304 4.35416 34.1614 5.4772 34.6294C6.60064 35.074 7.82861 35.2969 9.1623 35.2969C10.4964 35.2969 11.7255 35.0741 12.8486 34.6294C13.972 34.1614 14.931 33.5304 15.7266 32.7347C16.5459 31.9156 17.1779 30.9554 17.6224 29.8555C18.0907 28.7323 18.3238 27.5043 18.3238 26.1704C18.3238 25.5157 18.2725 24.8957 18.1739 24.3094C18.1085 23.7889 17.8553 23.3101 17.4618 22.963C17.0684 22.616 16.5617 22.4245 16.0371 22.4245C15.7543 22.4246 15.4743 22.4802 15.213 22.5885C14.9518 22.6968 14.7144 22.8555 14.5145 23.0555C14.3145 23.2555 14.156 23.4929 14.0478 23.7542C13.9396 24.0155 13.884 24.2956 13.8841 24.5784C13.8851 24.7794 13.9144 24.9793 13.9709 25.1722C14.0418 25.5016 14.0774 25.8576 14.0774 26.2421C14.0774 26.8505 13.959 27.4245 13.7263 27.9627C13.4935 28.501 13.1642 28.98 12.7433 29.4012C12.322 29.799 11.8072 30.1156 11.1989 30.3497C10.5907 30.5839 9.91139 30.7003 9.1627 30.7003C8.414 30.7003 7.73591 30.5839 7.12725 30.3497C6.51898 30.1157 6.0042 29.799 5.58331 29.4012C5.16202 28.98 4.83383 28.501 4.59991 27.9627C4.36717 27.4245 4.24883 26.8505 4.24883 26.2421C4.24883 25.8575 4.28827 25.5014 4.35534 25.1722C4.41183 24.9793 4.44103 24.7794 4.4421 24.5784C4.44216 24.2955 4.3865 24.0154 4.27828 23.7541C4.17007 23.4927 4.01143 23.2553 3.81142 23.0553C3.61141 22.8552 3.37396 22.6965 3.11262 22.5883C2.85128 22.4801 2.57074 22.4245 2.28788 22.4245Z" fill="white"/>
<path d="M24.9404 26.4722C22.8474 26.4722 21.1626 28.1571 21.1626 30.2499C21.1626 32.3428 22.8474 34.0277 24.9404 34.0277H70.7356C72.8286 34.0277 74.5134 32.3428 74.5134 30.2499C74.5134 28.1571 72.8286 26.4722 70.7356 26.4722H24.9404ZM26.3377 28.5734C26.5744 28.5734 26.7969 28.6151 27.0055 28.6987C27.2158 28.7824 27.3877 28.9005 27.521 29.053L27.2252 29.3488C27.1253 29.2292 26.9964 29.1364 26.8386 29.0706C26.6835 29.002 26.5161 28.9677 26.3365 28.9677C25.9868 28.9677 25.6908 29.0887 25.4489 29.331C25.2096 29.5761 25.09 29.8824 25.09 30.25C25.09 30.6177 25.2096 30.9239 25.4489 31.169C25.6908 31.4112 25.9868 31.5324 26.3365 31.5324C26.6563 31.5324 26.9222 31.4428 27.1345 31.2634C27.3475 31.0841 27.4698 30.8374 27.5014 30.5236H26.3356V30.1383H27.8911C27.9174 30.2219 27.9305 30.3026 27.9305 30.3803L27.9153 30.3799C27.9153 30.8282 27.7824 31.1854 27.5165 31.4514C27.2175 31.7682 26.8245 31.9265 26.3375 31.9265C25.8713 31.9265 25.4768 31.7651 25.1542 31.4423C24.8312 31.1196 24.6697 30.7223 24.6697 30.25C24.6697 29.7778 24.8312 29.3802 25.1542 29.0574C25.4768 28.7347 25.8714 28.5734 26.3377 28.5734ZM50.4833 28.5734C50.9674 28.5734 51.3606 28.7482 51.6625 29.0979L51.3665 29.3847C51.1377 29.1067 50.8433 28.9677 50.4833 28.9677C50.1275 28.9677 49.8301 29.0873 49.5911 29.3263C49.3544 29.5625 49.2361 29.8703 49.2361 30.2498C49.2361 30.6294 49.3544 30.9373 49.5911 31.1733C49.8304 31.4124 50.1278 31.532 50.4833 31.532C50.8567 31.532 51.1811 31.3749 51.4562 31.0611L51.7559 31.3527C51.6034 31.5351 51.4167 31.6768 51.1958 31.7785C50.9749 31.8773 50.7372 31.9268 50.4829 31.9268C50.0077 31.9268 49.6107 31.7669 49.2909 31.4472C48.974 31.1274 48.8155 30.7284 48.8155 30.2503C48.8155 29.772 48.9741 29.3745 49.2909 29.0577C49.6076 28.7349 50.005 28.5734 50.4833 28.5734ZM37.1134 28.6446H37.5256V31.8545H37.131V31.5495C37.06 31.663 36.9575 31.7542 36.8234 31.8229C36.6919 31.8915 36.5455 31.9258 36.384 31.9258L36.3662 31.9268C36.0793 31.9268 35.8327 31.8133 35.6265 31.586C35.4241 31.3559 35.3227 31.0793 35.3227 30.7565C35.3227 30.4338 35.4241 30.1574 35.6265 29.9273C35.8317 29.7001 36.0782 29.5864 36.3662 29.5864C36.5266 29.5864 36.673 29.6207 36.8056 29.6893C36.9397 29.758 37.0423 29.8493 37.1133 29.9628V29.6578L37.1134 28.6446ZM56.2556 28.6446H56.6678V31.8545H56.2732V31.5495C56.2022 31.663 56.0997 31.7542 55.9656 31.8229C55.8341 31.8915 55.6878 31.9258 55.5266 31.9258L55.5088 31.9268C55.2218 31.9268 54.9752 31.8133 54.7687 31.586C54.5662 31.3559 54.4649 31.0793 54.4649 30.7565C54.4649 30.4338 54.5662 30.1574 54.7687 29.9273C54.9738 29.7001 55.2205 29.5864 55.5088 29.5864C55.6692 29.5864 55.8155 29.6207 55.9478 29.6893C56.0819 29.758 56.1845 29.8493 56.2555 29.9628V29.6578L56.2556 28.6446ZM60.1979 28.6451H60.6282L61.3051 31.169L62.0002 29.0753H62.3868L63.0818 31.169L63.7393 28.6451H64.1697L63.3138 31.8549H62.8924L62.2018 29.7389L61.5114 31.8549H61.0898L60.1979 28.6451ZM69.0754 28.6451H69.4875V30.6221L70.4379 29.6582H70.9668V29.6783L70.1109 30.5302L71.0074 31.8392L71.0067 31.8563H70.5089L69.8229 30.8207L69.4875 31.1525V31.8563H69.0754L69.0754 28.6451ZM34.0376 29.586C34.0324 29.586 34.0278 29.5867 34.0228 29.5867C34.3248 29.5877 34.5637 29.6699 34.739 29.833C34.9152 29.9947 35.0033 30.2171 35.0033 30.501V31.8549H34.6088V31.5499C34.4379 31.8011 34.2107 31.9268 33.9272 31.9268C33.6853 31.9268 33.482 31.855 33.3173 31.7113C33.1569 31.5677 33.0768 31.3884 33.0768 31.1733C33.0768 30.9461 33.1623 30.7653 33.3332 30.6309C33.5068 30.4963 33.7368 30.4289 34.0235 30.4289C34.268 30.4289 34.4697 30.4739 34.6285 30.5635V30.4691C34.6285 30.3255 34.572 30.2044 34.4589 30.1058C34.3459 30.0043 34.2129 29.9536 34.0602 29.9536C33.8287 29.9536 33.6464 30.0506 33.5131 30.2451L33.1501 30.0163C33.3474 29.7331 33.6386 29.5904 34.0228 29.5867C34.0208 29.5867 34.0191 29.5865 34.017 29.5865L34.0376 29.586ZM38.8619 29.586C38.8567 29.586 38.8519 29.5867 38.8466 29.5867C39.1487 29.5877 39.3874 29.6699 39.5624 29.833C39.7386 29.9947 39.8267 30.2171 39.8267 30.501V31.8549H39.4323V31.5499C39.2614 31.8011 39.0343 31.9268 38.7511 31.9268C38.5091 31.9268 38.3058 31.855 38.1412 31.7113C37.9807 31.5677 37.9006 31.3884 37.9006 31.1733C37.9006 30.9461 37.9861 30.7653 38.157 30.6309C38.3306 30.4963 38.5606 30.4289 38.8473 30.4289C39.0919 30.4289 39.2938 30.4739 39.4529 30.5635V30.4691C39.4529 30.3255 39.3963 30.2044 39.2833 30.1058C39.1702 30.0043 39.037 29.9536 38.884 29.9536C38.6526 29.9536 38.4704 30.0506 38.3373 30.2451L37.9743 30.0163C38.1715 29.7332 38.4625 29.5905 38.8466 29.5867C38.8446 29.5867 38.8426 29.5865 38.8405 29.5865L38.8619 29.586ZM46.5722 29.586C46.5669 29.586 46.5623 29.5867 46.5574 29.5867C46.8595 29.5877 47.0983 29.6697 47.2737 29.833C47.4498 29.9947 47.5379 30.2171 47.5379 30.501V31.8549H47.1434V31.5499C46.9725 31.8011 46.7453 31.9268 46.4618 31.9268C46.2198 31.9268 46.0166 31.855 45.852 31.7113C45.6916 31.5677 45.6113 31.3884 45.6113 31.1733C45.6113 30.9461 45.6968 30.7653 45.8677 30.6309C46.0413 30.4963 46.2714 30.4289 46.558 30.4289C46.8026 30.4289 47.0044 30.4739 47.1632 30.5635V30.4691C47.1632 30.3255 47.1067 30.2044 46.9936 30.1058C46.8805 30.0043 46.7475 29.9536 46.5947 29.9536C46.3633 29.9536 46.181 30.0506 46.0476 30.2451L45.6847 30.0163C45.8819 29.7331 46.1731 29.5904 46.5574 29.5867C46.5555 29.5867 46.5538 29.5865 46.5518 29.5865L46.5722 29.586ZM44.4453 29.5864C44.7004 29.5864 44.8961 29.6643 45.0326 29.8196C45.1694 29.9749 45.2378 30.1961 45.2378 30.4831V31.8549H44.8255V30.5458C44.8255 30.3396 44.7887 30.1917 44.7151 30.102C44.6415 30.0093 44.5165 29.9632 44.3403 29.9632C44.1825 29.9632 44.0496 30.0305 43.9416 30.1648C43.8337 30.2992 43.7798 30.4576 43.7798 30.64V31.8549H43.3676V30.5458C43.3676 30.3396 43.3308 30.1916 43.2572 30.1019C43.1835 30.0094 43.0586 29.9631 42.8824 29.9631C42.7246 29.9631 42.5917 30.0304 42.4836 30.1647C42.3758 30.2991 42.3219 30.4574 42.3219 30.6399L42.3333 31.855H41.9207V29.6583H42.3151V29.9632C42.3783 29.8557 42.4742 29.766 42.6031 29.6942C42.7346 29.6225 42.8647 29.5866 42.9936 29.5866C43.154 29.5866 43.2959 29.6238 43.4193 29.6985C43.5429 29.7731 43.6323 29.8762 43.6875 30.0077C43.869 29.7268 44.1216 29.5864 44.4453 29.5864ZM31.8661 29.5866C32.1351 29.5866 32.3414 29.6643 32.485 29.8197C32.6323 29.9722 32.7059 30.1903 32.7059 30.4742V31.855H32.2937V30.501C32.2937 30.1424 32.1129 29.9631 31.7513 29.9631C31.5883 29.9631 31.4507 30.0304 31.3387 30.1647C31.2283 30.296 31.173 30.4545 31.173 30.6399V31.8549H30.7604L30.7759 29.6583H31.1704V29.9633C31.2335 29.8558 31.3295 29.766 31.4583 29.6942C31.5898 29.6225 31.7256 29.5866 31.8661 29.5866ZM53.0845 29.5866C53.4103 29.5866 53.6793 29.6971 53.8915 29.9183C54.1072 30.1394 54.215 30.4189 54.215 30.7566C54.215 31.0974 54.1072 31.3769 53.8915 31.595C53.6785 31.8162 53.4095 31.9268 53.0845 31.9268C52.7589 31.9268 52.4884 31.8162 52.273 31.595C52.06 31.3739 51.9536 31.0944 51.9536 30.7566C51.9536 30.4189 52.06 30.1394 52.273 29.9183C52.4886 29.6971 52.7592 29.5866 53.0845 29.5866ZM58.106 29.5867C58.4318 29.5867 58.6903 29.6929 58.8815 29.9051C59.0761 30.1141 59.1734 30.4085 59.1734 30.7882V30.8333H57.4473C57.4473 31.0485 57.5197 31.2218 57.6643 31.3533C57.801 31.4847 57.9653 31.5506 58.1572 31.5506C58.4202 31.5506 58.6264 31.4192 58.7758 31.1561L59.1427 31.3358C59.0427 31.5211 58.9053 31.666 58.7304 31.7706C58.5569 31.8752 58.3595 31.9275 58.1383 31.9275L58.1358 31.927C57.8131 31.927 57.5472 31.8165 57.3381 31.5953C57.1277 31.3742 57.0225 31.0946 57.0225 30.7568C57.0225 30.4221 57.1238 30.1443 57.3263 29.9231C57.5288 29.6991 57.7885 29.5867 58.106 29.5867ZM65.2029 29.5867C65.5287 29.5867 65.7871 29.6929 65.9783 29.9051C66.1729 30.1141 66.2703 30.4085 66.2703 30.7882V30.8333H64.5445C64.5445 31.0485 64.6155 31.2218 64.7575 31.3533C64.8943 31.4847 65.0586 31.5506 65.2506 31.5506C65.5136 31.5506 65.7199 31.4192 65.8695 31.1561L66.2364 31.3358C66.1391 31.5211 66.0015 31.666 65.8237 31.7706C65.6501 31.8752 65.453 31.9275 65.2321 31.9275C64.9094 31.9275 64.6439 31.8165 64.4345 31.5953C64.2242 31.3742 64.1189 31.0946 64.1189 30.7568C64.1189 30.4221 64.2202 30.1443 64.4227 29.9231C64.6252 29.6991 64.8852 29.5867 65.2029 29.5867ZM67.6315 29.5867C67.9574 29.5867 68.2159 29.6929 68.4071 29.9051C68.6017 30.1141 68.699 30.4085 68.699 30.7882V30.8333H66.9728C66.9728 31.0485 67.0451 31.2218 67.1897 31.3533C67.3265 31.4847 67.4909 31.5506 67.6828 31.5506C67.9458 31.5506 68.152 31.4192 68.3014 31.1561L68.6683 31.3358C68.5683 31.5211 68.4308 31.666 68.2557 31.7706C68.0821 31.8752 67.8848 31.9275 67.6639 31.9275L67.6577 31.927C67.335 31.927 67.069 31.8165 66.8597 31.5953C66.6519 31.3742 66.548 31.0946 66.548 30.7568C66.548 30.4221 66.6493 30.1443 66.8518 29.9231C67.0543 29.6991 67.3141 29.5867 67.6315 29.5867ZM41.331 29.5935C41.4493 29.5935 41.5505 29.6117 41.6347 29.6468L41.5085 30.0458C41.4585 30.0251 41.3784 30.0146 41.2679 30.0146C41.1127 30.0146 40.9767 30.0775 40.86 30.2028C40.7469 30.3282 40.6904 30.4747 40.6904 30.6422L40.7059 31.853H40.2936V29.6563H40.688V30.0149C40.7301 29.8982 40.8156 29.7998 40.9445 29.719C41.076 29.6354 41.2047 29.5935 41.331 29.5935ZM28.3475 29.6562H28.7597V31.0102C28.7597 31.3689 28.9406 31.5481 29.3025 31.5481C29.4655 31.5481 29.6029 31.4823 29.7147 31.3508C29.8251 31.2164 29.8804 31.0566 29.8804 30.8712V29.6562H30.2926L30.2737 31.8531H29.8793V31.5482C29.8162 31.6557 29.7188 31.7454 29.5873 31.8172C29.4584 31.8889 29.324 31.9249 29.1838 31.9249C28.9148 31.9249 28.7071 31.8487 28.5606 31.696C28.4186 31.5407 28.3476 31.3209 28.3476 31.037L28.3475 29.6562ZM36.4333 29.9613C36.2361 29.9613 36.0703 30.036 35.9359 30.1852C35.8018 30.3344 35.7347 30.5244 35.7347 30.7546C35.7347 30.9877 35.8018 31.1774 35.9359 31.3239C36.07 31.4733 36.2358 31.5481 36.4333 31.5481C36.6358 31.5481 36.8017 31.4751 36.9311 31.3285C37.0652 31.182 37.1322 30.9907 37.1322 30.7546C37.1322 30.5246 37.0652 30.3347 36.9311 30.1852C36.7996 30.0359 36.6337 29.9613 36.4333 29.9613ZM53.0821 29.9613C52.8822 29.9613 52.7119 30.0361 52.5712 30.1854C52.4345 30.3319 52.3662 30.5216 52.3662 30.7546C52.3662 30.9908 52.4345 31.1821 52.5712 31.3285C52.708 31.475 52.8783 31.5482 53.0821 31.5482C53.2846 31.5482 53.455 31.475 53.5933 31.3285C53.7301 31.182 53.7985 30.9907 53.7985 30.7546C53.7985 30.5214 53.7301 30.3317 53.5933 30.1854C53.454 30.0361 53.2835 29.9613 53.0821 29.9613ZM55.5759 29.9613C55.3786 29.9613 55.2128 30.036 55.0785 30.1852C54.9443 30.3344 54.8774 30.5244 54.8774 30.7546C54.8774 30.9877 54.9443 31.1774 55.0785 31.3239C55.2126 31.4733 55.3784 31.5481 55.5759 31.5481C55.7784 31.5481 55.9444 31.4751 56.0738 31.3285C56.2079 31.182 56.2749 30.9907 56.2749 30.7546C56.2749 30.5246 56.2079 30.3347 56.0738 30.1852C55.9423 30.0359 55.7762 29.9613 55.5759 29.9613ZM58.099 29.9613C57.9438 29.9613 57.8093 30.0092 57.6954 30.1049C57.5849 30.2006 57.5113 30.329 57.4745 30.4902H57.4768H58.7364C58.7364 30.3378 58.6732 30.2122 58.547 30.1135C58.4365 30.012 58.2873 29.9613 58.099 29.9613ZM65.1958 29.9613C65.0406 29.9613 64.9061 30.0092 64.7922 30.1049C64.6817 30.2006 64.6081 30.329 64.5713 30.4902H64.5733H65.8332C65.8332 30.3378 65.7701 30.2122 65.6439 30.1135C65.5335 30.012 65.3841 29.9613 65.1958 29.9613ZM67.6205 29.9613C67.4653 29.9613 67.331 30.0092 67.2174 30.1049C67.1069 30.2006 67.0333 30.329 66.9965 30.4902H66.9989H68.2584C68.2584 30.3378 68.1952 30.2122 68.069 30.1135C67.9585 30.012 67.8091 29.9613 67.6205 29.9613ZM34.0696 30.7593C33.9013 30.7593 33.7608 30.7995 33.6483 30.8805C33.5378 30.9612 33.4826 31.0611 33.4826 31.1805C33.4826 31.288 33.5282 31.3777 33.6176 31.4495C33.7096 31.5212 33.8175 31.5572 33.9411 31.5572C34.1146 31.5572 34.2684 31.4932 34.4025 31.3645C34.5393 31.2358 34.6077 31.085 34.6077 30.9117C34.4788 30.8102 34.2995 30.7593 34.0696 30.7593ZM38.8939 30.7593C38.7256 30.7593 38.585 30.7995 38.4722 30.8805C38.3618 30.9612 38.3065 31.0611 38.3065 31.1805C38.3065 31.288 38.3521 31.3777 38.4415 31.4495C38.5335 31.5212 38.6413 31.5572 38.7649 31.5572C38.9385 31.5572 39.0924 31.4932 39.2268 31.3645C39.3635 31.2358 39.432 31.085 39.432 30.9117C39.3031 30.8102 39.1238 30.7593 38.8939 30.7593ZM46.6042 30.7593C46.4359 30.7593 46.2954 30.7995 46.1828 30.8805C46.0724 30.9612 46.0172 31.0611 46.0172 31.1805C46.0172 31.288 46.0627 31.3777 46.1521 31.4495C46.2441 31.5212 46.352 31.5572 46.4756 31.5572C46.6491 31.5572 46.8029 31.4932 46.9371 31.3645C47.0738 31.2358 47.1422 31.085 47.1422 30.9117C47.0133 30.8102 46.834 30.7593 46.6042 30.7593Z" fill="white"/>
<path d="M19.9246 3.12808C19.9246 3.44656 19.8619 3.76193 19.74 4.05617C19.6181 4.35041 19.4395 4.61775 19.2143 4.84295C18.9891 5.06815 18.7217 5.24678 18.4275 5.36865C18.1332 5.49053 17.8179 5.55332 17.4994 5.55331C17.1809 5.55332 16.8656 5.49053 16.5713 5.36865C16.2771 5.24678 16.0097 5.06815 15.7845 4.84295C15.5593 4.61775 15.3807 4.35041 15.2588 4.05617C15.1369 3.76193 15.0742 3.44656 15.0742 3.12808C15.0742 2.80961 15.137 2.49432 15.2588 2.2001C15.3807 1.90587 15.5594 1.6385 15.7846 1.41331C16.0098 1.18813 16.2771 1.00948 16.5713 0.887611C16.8656 0.765745 17.1809 0.703046 17.4994 0.703054C17.8179 0.703046 18.1332 0.765746 18.4275 0.887611C18.7217 1.00948 18.989 1.18813 19.2142 1.41331C19.4394 1.6385 19.6181 1.90587 19.74 2.2001C19.8618 2.49432 19.9246 2.80961 19.9246 3.12808Z" fill="white"/>
</svg>
